<svg width="418" height="300" viewBox="0 0 418 300" fill="none" xmlns="http://www.w3.org/2000/svg">
<path d="M281.047 4.5532C308.235 12.985 325.193 34.5425 334.839 54.6524C344.019 73.7897 320.219 97.1833 333.959 114.856C346.763 131.327 386.814 126.621 402.537 141.731C417.166 155.79 421.331 176.089 415.389 193.113C409.409 210.249 387.511 221.891 370.185 234.431C354.854 245.528 336.214 253.337 318.985 262.89C301.659 272.497 287.757 285.642 267.402 291.423C246.67 297.31 223.683 295.254 201.434 296.273C176.647 297.408 151.346 303.027 127.586 297.827C103.448 292.545 79.802 282.015 66.3034 266.703C52.7089 251.282 63.9245 229.746 53.0318 213.255C41.1707 195.298 -6.79727 186.666 0.813992 167.558C9.99587 144.506 62.7498 148.063 85.884 130.778C99.0334 120.953 89.6415 102.26 102.026 91.9353C114.38 81.6366 140.771 85.1697 153.022 74.808C174.346 56.7729 170.568 26.1893 196.745 11.8245C219.428 -0.622931 254.84 -3.57447 281.047 4.5532Z" fill="#C2D935"/>
</svg>
