<svg width="916" height="559" viewBox="0 0 916 559" fill="none" xmlns="http://www.w3.org/2000/svg">
<path d="M563.603 0.460845C625.613 3.25249 703.651 4.8073 739.318 38.4826C781.08 77.9133 721.733 138.539 755.148 181.311C781.973 215.645 870.913 211.118 900.29 244.526C928.102 276.154 911.58 316.862 906.374 353.291C901.132 389.973 914.895 438.809 869.476 460.133C812.232 487.01 729.594 458.413 661.064 468.467C625.425 473.696 597.571 491.169 567.125 504.492C529.685 520.877 502.998 549.567 459.425 556.709C416.359 563.768 370.894 553.131 328.967 543.53C286.163 533.728 254.198 509.848 211.456 499.926C143.582 484.17 24.2237 513.355 3.05715 467.874C-20.3692 417.537 97.2907 384.276 136.259 338.349C155.88 315.224 177.666 290.488 176.048 263.99C173.528 222.709 107.199 185.623 124.509 145.928C139.077 112.523 210.256 107.264 253.153 87.1791C298.777 65.818 336.303 37.0408 387.795 22.6575C443.229 7.17313 503.569 -2.24179 563.603 0.460845Z" fill="#C2D935"/>
</svg>
