<svg width="2054" height="267" viewBox="0 0 2054 267" fill="none" xmlns="http://www.w3.org/2000/svg">
<path fill-rule="evenodd" clip-rule="evenodd" d="M0 26.5396L49.6383 46.5779C97.565 66.6163 195.13 106.693 292.695 121.722C391.972 136.751 489.537 126.731 587.102 106.693C684.667 86.6547 782.232 56.5971 879.797 31.5492C977.362 6.50121 1076.64 -13.5372 1174.2 11.5108C1271.77 36.5588 1369.33 106.693 1466.9 116.712C1564.46 126.731 1662.03 76.6355 1761.31 61.6067C1858.87 46.5779 1956.44 66.6163 2004.36 76.6355L2054 86.6547V267H2004.36C1956.44 267 1858.87 267 1761.31 267C1662.03 267 1564.46 267 1466.9 267C1369.33 267 1271.77 267 1174.2 267C1076.64 267 977.362 267 879.797 267C782.232 267 684.667 267 587.102 267C489.537 267 391.972 267 292.695 267C195.13 267 97.565 267 49.6383 267H0V26.5396Z" fill="#C2D935"/>
</svg>
